<?xml version="1.0" encoding="UTF-8"?>
<svg id="Camada_1" xmlns="http://www.w3.org/2000/svg" version="1.1" viewBox="0 0 92.61 94.87">
  <!-- Generator: Adobe Illustrator 30.3.0, SVG Export Plug-In . SVG Version: 2.1.3 Build 182)  -->
  <defs>
    <style>
      .st0 {
        stroke-width: .46px;
      }

      .st0, .st1, .st2 {
        fill: none;
        stroke: #000;
        stroke-linecap: round;
        stroke-linejoin: round;
      }

      .st1 {
        stroke-width: .46px;
      }

      .st2 {
        stroke-width: .46px;
      }
    </style>
  </defs>
  <path class="st0" d="M30.54,15.51c-23.73,18.17-9.05,21.61-16.25,39.18-4.95,12.08,2.74,15.08,12.14,21.06,3.48,2.21,7.74,4.43,12.06,6.3,3.55,1.54,5.44,2.36,7.55,2.3,2.1.06,4-.76,7.55-2.3,4.32-1.87,8.58-4.09,12.06-6.3,9.41-5.98,17.1-8.98,12.14-21.06-7.21-17.58,7.47-21.02-16.25-39.18-10.22-7.82-20.77-7.82-30.99,0ZM32.17,63.91c-2.4-13.6,10.02-13.25-1.48-18.13-1.52-.64-2.62-1.39-3.69-2.47-1.63-1.67-2.05-5.5-1.4-8.53,2.18-10.14,16.78.89,20.77.87,4.12-.02,14.77-8.63,18.99-3.15,2.07,2.69,1.97,8.49-.31,10.82-2.55,2.61-3.58,2.34-5.94,3.58-5.66,2.97,3.44,9.67.87,16.59-8.56-4.74-19.86-5.15-27.81.43ZM28.52,24.46c9.66-5.26,24.18-6.02,34.9.05-.51-1.09-2.5-2.73-3.49-3.46-1.57-1.16-3.37-2.09-5.26-2.76-4.77-1.68-9.68-1.63-14.23-.62-3.61.8-9.57,3.55-11.91,6.79ZM23.76,44.19c.69-2.64-1.3-1.13-3.48-4.97-.59-1.03-.96-2.44.6-2.65,1.69-.23,2.52.84,3.27,1.14-.53-1.58-1.38-3.31-3.08-3.99-3.17-1.27-5.66,4.32-2.21,8.3,1.25,1.44,4.31,2.39,4.9,2.17ZM68.2,44.02c-.69-2.64,1.3-1.13,3.48-4.97.59-1.03.96-2.44-.6-2.65-1.69-.23-2.52.84-3.27,1.13.53-1.57,1.38-3.31,3.08-3.99,3.17-1.27,5.66,4.32,2.21,8.3-1.25,1.44-4.31,2.39-4.9,2.17ZM33.87,68.12c1.54-7.35,20.19-9.33,24.32,0-2.29,4.5-7.21,6.78-12.11,6.76h-.09c-4.9.02-9.82-2.26-12.11-6.76Z"/>
  <path class="st1" d="M45.49,41.17c-5.26.43-5.66,3.75-6.53,3.82-2.15.17-7.69-2.82-8.75-4.95-1.61-3.23-.88-6.99,4-4.76,12.77,5.84,11.12,5.82,23.82,0,4.88-2.23,5.61,1.53,4,4.76-1.06,2.13-6.6,5.12-8.75,4.95-.87-.07-1.27-3.38-6.53-3.82-.47-.04-.8-.05-1.27,0Z"/>
  <path class="st2" d="M38.3,49.35c-2.05,1.47,1.1,7.99,5.43,4.51,1.5-1.2,2.65-1.98,4.56-.38,5.11,4.26,7.03-2.38,6.35-3.74-1.22-2.42-5.45,1.66-10.81.35-1.46-.36-4.11-1.76-5.53-.75Z"/>
</svg>