<?xml version="1.0" encoding="UTF-8"?>
<svg id="Camada_1" xmlns="http://www.w3.org/2000/svg" version="1.1" viewBox="0 0 4561.11 1205.56">
  <!-- Generator: Adobe Illustrator 30.3.0, SVG Export Plug-In . SVG Version: 2.1.3 Build 182)  -->
  <defs>
    <style>
      .st0 {
        fill-rule: evenodd;
      }
    </style>
  </defs>
  <path d="M2830.65,367.95c-15.5,8.43-25.57,19.56-30.31,33.17-1.53,4.41-2.57,9.01-3.18,14,.48,114.08-1.98,224.14-7.2,330.36.19,2.68-.61,4.98-1.41,7.28-2.34,6.71-6.14,11.7-13,16.87-221.34,158.31-380.27,272.51-476.82,342.23-14.32,10.34-18.96,11.8-22.91,30.7-1.16,4.41.62,9.01,5.86,12.84,3.34,1.73,6.7,2.88,10.08,2.88h244.2c6.01,0,11.69-2.3,17.53-6.13,52.91-36.63,107.09-74.2,162.99-112.93,10.03-6.71,19.5-13.42,29.73-20.71,6.29-4.03,11.95-5.76,17.4-5.76,1.69,0,5.24.58,9.34,1.73,4.28,1.73,6.69,6.14,6.58,14-.71,38.73-.92,77.08-.84,114.66,1.52,10.16,6.92,15.14,16.12,15.14h290.94c3.94,0,8.1-1.15,12.08-2.88l12.45-5.56c9.8-4.99,16.65-11.7,19.58-20.13,1-2.87,1.43-5.75,1.24-8.43-2.08-161.25-3.45-277.64-3.78-349.53.38-2.68.81-5.56,1.81-8.44,2.13-6.13,6.89-11.69,12.93-16.68,168.88-115.23,334.5-229.32,495.4-341.1,6.81-4.99,11.37-10.55,13.57-16.87.4-1.15.57-3.26,2.17-7.86.77-3.84-1.38-8.44-6.98-12.85-2.78-1.73-6.13-2.88-10.08-2.88h-285.87c-5.63,0-11.88,2.3-17.59,6.33-30.69,21.86-89.28,63.47-173.97,123.48-5.72,4.03-11.34,6.14-16.96,6.14-2.07,0-5.25-.57-9.36-1.15-4.17-.96-6.32-5.56-6.96-13.42-.01-13.99-.38-29.15-.55-44.29.23-16.3-.47-33.17-.57-51.77-1.83-16.87-10.53-25.31-26.49-25.31h-255.09c-3.38,0-7.53,1.15-12.08,2.88"/>
  <path d="M3713.01,367.95c-15.51,8.43-25.57,19.56-30.31,33.17-1.54,4.41-2.57,9.01-3.18,14,.48,114.08-1.96,224.14-7.2,330.36.2,2.68-.61,4.98-1.41,7.28-2.33,6.71-6.13,11.7-13,16.87-228.4,163.36-390.34,279.74-485.87,348.77-6.04,4.41-10.1,10.16-12.04,15.72-.6,1.72-.97,4.41-1.81,8.44-1.16,4.41.62,9.01,5.86,12.84,3.34,1.73,6.7,2.88,10.07,2.88h244.21c6,0,11.68-2.3,17.54-6.13,52.89-36.63,107.08-74.2,162.97-112.93,10.02-6.71,19.5-13.42,29.73-20.71,6.29-4.03,11.95-5.76,17.4-5.76,1.69,0,5.24.58,9.34,1.73,4.28,1.73,6.69,6.14,6.58,14-.71,38.73-.91,77.08-.84,114.66,1.53,10.16,6.92,15.14,16.12,15.14h290.94c3.94,0,8.1-1.15,12.08-2.88l12.45-5.56c9.8-4.99,16.65-11.7,19.58-20.13,1-2.87,1.43-5.75,1.24-8.43-2.09-161.25-3.45-277.64-3.78-349.53.38-2.68.81-5.56,1.8-8.44,2.14-6.13,6.89-11.69,12.94-16.68,168.87-115.23,334.5-229.32,495.4-341.1,6.81-4.99,11.37-10.55,13.57-16.87.4-1.15.57-3.26,2.17-7.86.77-3.84-1.38-8.44-6.98-12.85-2.78-1.73-6.13-2.88-10.07-2.88h-285.87c-5.63,0-11.87,2.3-17.59,6.33-30.69,21.86-89.28,63.47-173.98,123.48-5.72,4.03-11.33,6.14-16.97,6.14-2.06,0-5.25-.57-9.36-1.15-4.17-.96-6.33-5.56-6.97-13.42-.01-13.99-.38-29.15-.55-44.29.23-16.3-.47-33.17-.57-51.77-1.82-16.87-10.52-25.31-26.48-25.31h-255.09c-3.38,0-7.53,1.15-12.08,2.88"/>
  <path class="st0" d="M1128.78,220.1c-50.51-10.1-34.98-68.59,6.12-57.11,14.01,3.91,26.56,13.71,45.01,18.98,22.16,6.33,54.67,10.59,61.56-14.99,7.75-28.79-35.77-34.93-61.75-43.62-34.81-11.65-79.23-20.42-109.03-7.97-27.79,11.6-53.39,43-40.18,86.83,10.76,35.71,36.69,42.57,72.8,57.4,92.71,38.1,13.44,140.42,68.82,197.39,22.89,23.55,67.44,30.22,104.12,15.62,31-12.34,50.45-33.85,50.28-76.81-30.93-11.25-74.5-5.78-100.61,6.37,20.39-33.3,66.62-46.44,104.73-44.54l-29.81-50.18c-23.58,3.71-30.92,11.22-55.16-2.35-12.14-6.8-19.69-13.86-21.35-25.59-5.06-35.74,43.94-3,57.07-.1l13.98-15.53c-11.61-14.79-37.08-29.17-63.8-34.42-40.89-8.03-37.28,24.74-50.05,41.83-21.02-42.3-9.61-42.6-52.73-51.2M957.22,325.55c17.08,90.04,64.51,180.68,161.68,205.9-13.28-19.06-31-27.69-47.35-45.82-49.6-54.99-52.79-94.41-67.8-116.84-2.65-3.96-44.2-41.39-46.54-43.24ZM997.8,292.87c-.08-1.75,4.81-14.41-2.63-18.39-25.01-13.37-55.33-61.65-17.22-58.33,8.93.78,16.77,7.17,23.95,11.99l-6.1-17.04c-53.15-84.05-104.84,67.38,2,81.77ZM946.08,136.78c52.67-40.37,59.86-55.91,164.82-76.08-67.38-33.4-149.33,20.63-164.82,76.08ZM1097.9,762.97l191.41-255.97c152.47-104.66,47.67-166.29,33.06-229.39-15.58-67.25-40.41-41-34.19-89.84,10.28-80.73-29.49-71.76-81.5-103.07-93.72-128.16-287.03-15.61-324.4,98.51l-41.45,36.49,257.07,543.27Z"/>
  <path class="st0" d="M1567.67,473.37c-66.03-46.92-63.07,27.85,0,0"/>
  <path class="st0" d="M1582.89,470.39c35.52-2.22,33.67-23.86,11.75-15-7.75,3.13-8.6,6.46-11.75,15"/>
  <path class="st0" d="M475.32,822.47c123.28,218.95,160.01,97.18,7.95,337.32l361.97-.8c13.29-.03,20.16-4.72,22.83-19.99.08-.48.16-.97.22-1.46.72-5.6-1.06-8.65-2.88-13.36-7.73-19.98-28.18-64.07-29.33-66.54l-296.54-622.39c-127.72,111.27-232.73,170.34-402.51,346.51-37.49,64.08-29.78,140.42-14.63,216.02l-85.59,126.5c-1.96,3.35-3.48,6.5-4.51,9.84-3.03,9.85-.57,17.48,6.84,23.43,126.81,0,248.68,1.27,376.12-.76,87.6-131.53,122.92-152.07,60.04-334.31"/>
  <path d="M807.47,279.16l284.25,590.58c82.58-100.9,523.5-716.74,550.59-737,4.96-3.71,11.33-7.52,16.65-7.51l297.13.69c3.74,0,7.19.93,9.8,2.68,5.76,3.87,9.34,8.85,7.74,11.97-23.13,45.09-638.1,885.98-714.87,997.01-8.78,12.7-22.74,21.35-38.07,21.32l-237.45.21c-30.57-.13-36.85,6.49-50.53-21.89l-345.28-721.08c-10.01-20.76-18.53-45.2-11.25-62.45,8.91-21.11,32.34-44.12,54.84-62.16,49.54-39.74,118.11-68.02,149.36-52.85,13.09,6.35,20.51,27.55,27.08,40.49"/>
  <path class="st0" d="M1791.13,907.05h260.09c-1.87,6.29-52.48,89.41-56.88,96.72-18.88,31.33-56.95,89.97-71.87,119.76-4.23,8.44-10.66,18.04-5.41,28.48,2.57,5.1,5.01,6.83,12.21,6.98l57.64-.09h153.91c64.12,0,58.74-3.21,96.76-56.36,21.42-29.95,41.93-60.2,63.64-90.27,42.44-58.79,84.13-120.7,126.29-180.46,21.27-30.14,41.25-59.97,62.72-90.12,21.41-30.06,42.46-60.13,63.21-90.69,20.92-30.81,42.19-59.57,62.81-90.03,20.88-30.86,42.16-60.32,63.42-90.49,9.08-12.88,39.81-55.31,46.95-67.14,5.93-9.83,7.12-20.77-.19-29.12-6.89-7.87-14.49-9.21-28.59-9.19h-729.76c-16.82,0-61.1-2.33-73.68,2.9-23.93,9.94-31.24,12.68-44.58,31.8-21.05,30.18-42.48,60.03-63.93,89.95l-445.95,627.17c-6.51,9.11-19.32,28.39-6.42,39.77,3.73,3.29,12,2.02,17.87,2.02,25.83,0,51.65,0,77.48,0,50.29,0,102.88,1.49,152.88-.13,27.37-.89,37.5-12.17,48.71-27.54,11.04-15.13,21.51-29.87,32.2-45.3l119.33-167.51c2.96-4.07,4.81-8.6,9.14-11.08M1999.05,612.76c22.89-32.72,26.53-31.05,64.31-31.05h142.4c16.23-.05,26.19,4.19,25.9,22.08-.16,10.1-9.88,18.04-17.44,29.42-18.5,27.86-37.1,59.36-54.37,89.07-5.6,9.63-11.28,20.45-17.46,29.72l-241.68-.23,98.34-139.01Z"/>
</svg>